<svg xmlns="http://www.w3.org/2000/svg" width="45.215" height="42.256" viewBox="0 0 45.215 42.256">
  <g id="Group_19" data-name="Group 19" transform="translate(0)">
    <path id="Polygon_2" data-name="Polygon 2" d="M14,.893a2,2,0,0,1,2.393,0l12.859,9.6A2,2,0,0,1,29.96,12.7l-4.933,15.6a2,2,0,0,1-1.907,1.4H7.269a2,2,0,0,1-1.907-1.4L.429,12.7a2,2,0,0,1,.711-2.206Z" transform="translate(14.826 12.565)" fill="#d0d0d0"/>
    <g id="Polygon_1" data-name="Polygon 1" transform="translate(0)" fill="none" stroke-linecap="round" stroke-linejoin="round">
      <path d="M18.862.895a2,2,0,0,1,2.395,0L38.981,14.141a2,2,0,0,1,.71,2.2L32.9,37.849a2,2,0,0,1-1.907,1.4H9.128a2,2,0,0,1-1.907-1.4L.428,16.345a2,2,0,0,1,.71-2.2Z" stroke="none"/>
      <path d="M 20.05935668945312 3.745182037353516 L 3.502365112304688 16.11865043640137 L 9.860464096069336 36.24658966064453 L 30.25825309753418 36.24658966064453 L 36.61634826660156 16.11864852905273 L 20.05935668945312 3.745182037353516 M 20.05935668945312 0.496795654296875 C 20.4804859161377 0.496795654296875 20.9016170501709 0.6294441223144531 21.25661659240723 0.8947372436523438 L 38.98105621337891 14.14066886901855 C 39.66234588623047 14.64980888366699 39.94709777832031 15.53412818908691 39.69091796875 16.34514808654785 L 32.89818572998047 37.84901809692383 C 32.6353759765625 38.68098831176758 31.86357688903809 39.24658966064453 30.9910774230957 39.24658966064453 L 9.127635955810547 39.24658966064453 C 8.255136489868164 39.24658966064453 7.483325958251953 38.68098831176758 7.220527648925781 37.84901809692383 L 0.42779541015625 16.34514808654785 C 0.1716079711914062 15.53413772583008 0.4563674926757812 14.64980888366699 1.137657165527344 14.14066886901855 L 18.86209678649902 0.8947372436523438 C 19.21709632873535 0.6294441223144531 19.63822746276855 0.496795654296875 20.05935668945312 0.496795654296875 Z" stroke="none" fill="#000517"/>
    </g>
  </g>
</svg>
