<svg xmlns="http://www.w3.org/2000/svg" width="51.082" height="45.099" viewBox="0 0 51.082 45.099">
  <g id="Group_839" data-name="Group 839" transform="translate(-1390.634 -1668.5)">
    <g id="feather" transform="translate(1406.932 1676.9)">
      <path id="Path_18" data-name="Path 18" d="M27.869,16.851C31.045,9.664,30.53-.924,31.195-2.878S19.046-2.335,11.864.846,2.32,6.384-.861,13.571s-4.006,12.018,0,16.024,8.841,3.186,16.024,0S24.692,24.038,27.869,16.851Z" transform="translate(3.565 3.568)" fill="#d0d0d0"/>
    </g>
    <g id="feather-2" data-name="feather" transform="translate(1392.755 1670)">
      <path id="Path_18-2" data-name="Path 18" d="M30.024,18.228c3.391-7.672,2.84-18.974,3.55-21.059S20.607-2.252,12.94,1.144,2.753,7.055-.643,14.726s0,17.1,0,17.1,9.437,3.4,17.1,0S26.633,25.9,30.024,18.228Z" transform="translate(6.463 3.568)" fill="none" stroke="#000517" stroke-linecap="round" stroke-linejoin="round" stroke-width="3"/>
      <line id="Line_9" data-name="Line 9" x1="13.694" y2="13.694" transform="translate(0 27.784)" fill="none" stroke="#000517" stroke-linecap="round" stroke-linejoin="round" stroke-width="3"/>
    </g>
  </g>
</svg>
